<svg xmlns="http://www.w3.org/2000/svg" width="200" height="200" viewBox="0 0 200 200">
  <!-- Background Circle -->
  <circle cx="100" cy="100" r="90" fill="#e8f5e9"/>
  
  <!-- Teacher Illustration -->
  <g transform="translate(100, 100)">
    <!-- Body/Suit -->
    <rect x="-35" y="10" width="70" height="80" rx="10" fill="#4caf50"/>
    
    <!-- Head -->
    <circle cx="0" cy="-30" r="40" fill="#ffb74d"/>
    
    <!-- Hair -->
    <path d="M-40,-30 Q-40,-60 0,-60 Q40,-60 40,-30" fill="#795548" stroke="none"/>
    
    <!-- Eyes -->
    <circle cx="-15" cy="-30" r="5" fill="#2c3e50"/>
    <circle cx="15" cy="-30" r="5" fill="#2c3e50"/>
    
    <!-- Mouth -->
    <path d="M-15,-10 Q0,0 15,-10" fill="none" stroke="#2c3e50" stroke-width="2" stroke-linecap="round"/>
    
    <!-- Tie -->
    <polygon points="0,10 -10,30 0,50 10,30" fill="#ff9800"/>
    
    <!-- English Symbol -->
    <g transform="translate(0, 70) scale(0.7)">
      <circle cx="0" cy="0" r="20" fill="#fff"/>
      <text x="0" y="7" font-family="Arial, sans-serif" font-size="24" font-weight="bold" text-anchor="middle" fill="#4caf50">E</text>
    </g>
  </g>
  
  <!-- Name Label -->
  <rect x="50" y="170" width="100" height="25" rx="12.5" fill="#4caf50"/>
  <text x="100" y="187" font-family="Arial, sans-serif" font-size="14" font-weight="bold" text-anchor="middle" fill="#fff">فوزي بدري</text>
</svg>